{"title":"Fernando Trueba - El Embrujo de Shanghai aka The Shanghai Spell","uid":7181414,"size":1465079554,"categoryP":"video","categoryS":"movies","magnet":"?xt=urn:btih:a8296fbdf3caa64c1fe5d83ddcea508e1f79f374&amp;dn=Fernando+Trueba+-+El+Embrujo+de+Shanghai+aka+The+Shanghai+Spell&amp;tr=udp%3A%2F%2Ftracker.openbittorrent.com%3A80&amp;tr=udp%3A%2F%2Fopen.demonii.com%3A1337&amp;tr=udp%3A%2F%2Ftracker.coppersurfer.tk%3A6969&amp;tr=udp%3A%2F%2Fexodus.desync.com%3A6969","seeders":1,"leechers":0,"uploader":"Aaaameida","files":-1,"time":1334281350,"description":"A fourteen year old lad discovers his first love at the point of his pencil whilst drawing the portrait of a sickly but coquettish fifteen year old girl. In the neighbourhood an old freedom-fighter pits himself against bad types, a pretty cinema-ticket girl takes to the streets at night and a young anarchist dedicates himself to telling tall stories. Far away, in Shanghai, a hero of the Republic meets a beautiful femme fatal with oriental eyes. Reality and fiction become fused in an embrace.\n\nEnglish Subtitles\n\nIMDB: http://www.imdb.com/title/tt0264571\n\nScreenshoots:\n &lt;a href=&quot;\nhttp://img98.imageshack.us/img98/1200/vlcsnap00016e.png&quot; rel=&quot;nofollow&quot; target=&quot;_NEW&quot;&gt;\nhttp://img98.imageshack.us/img98/1200/vlcsnap00016e.png&lt;/a&gt; &lt;a href=&quot;\nhttp://img3.imageshack.us/img3/4205/vlcsnap00015g.png&quot; rel=&quot;nofollow&quot; target=&quot;_NEW&quot;&gt;\nhttp://img3.imageshack.us/img3/4205/vlcsnap00015g.png&lt;/a&gt; &lt;a href=&quot;\nhttp://img827.imageshack.us/img827/1166/vlcsnap000141.png&quot; rel=&quot;nofollow&quot; target=&quot;_NEW&quot;&gt;\nhttp://img827.imageshack.us/img827/1166/vlcsnap000141.png&lt;/a&gt;\n\n\n      Format : AVI\n      Format/Info : Audio Video Interleave\n      File size : 1.36 GiB\n      Duration : 1h 54mn\n      Overall bit rate : 1 703 Kbps\n      Writing application : VirtualDubMod 1.5.10.2 (build 2540/release)\n      Writing library : VirtualDubMod build 2540/release\n   Video #0\n      ID : 0\n      Format : MPEG-4 Visual\n      Format profile : AdvancedSimple@L5\n      Format settings, BVOP : Yes\n      Format settings, QPel : No\n      Format settings, GMC : No warppoints\n      Format settings, Matrix : Default (H.263)\n      Muxing mode : Packed bitstream\n      Codec ID : XVID\n      Codec ID/Hint : XviD\n      Duration : 1h 54mn\n      Bit rate : 1 437 Kbps\n      Width : 720 pixels\n      Height : 304 pixels\n      Display aspect ratio : 2.35:1\n      Frame rate : 25.000 fps\n      Resolution : 24 bits\n      Colorimetry : 4:2:0\n      Scan type : Progressive\n      Bits/(Pixel*Frame) : 0.263\n      Stream size : 1.15 GiB (84%)\n      Writing library : XviD 1.2.1 (UTC 2008-12-04)\n   Audio #1\n      ID : 1\n      Format : AC-3\n      Format/Info : Audio Coding 3\n      Codec ID : 2000\n      Duration : 1h 54mn\n      Bit rate mode : Constant\n      Bit rate : 256 Kbps\n      Channel(s) : 6 channels\n      Channel positions : Front: L C R, Surround: L R, LFE\n      Sampling rate : 48.0 KHz\n      Stream size : 210 MiB (15%)\n      Alignment : Split accross interleaves\n      Interleave, duration : 40 ms (1.00 video frame)\n      Interleave, preload duration : 500 ms\n\n\nUpped KG: sphenoid","torrent":{"xt":"urn:btih:a8296fbdf3caa64c1fe5d83ddcea508e1f79f374","amp;dn":"Fernando+Trueba+-+El+Embrujo+de+Shanghai+aka+The+Shanghai+Spell","amp;tr":["udp%3A%2F%2Ftracker.openbittorrent.com%3A80","udp%3A%2F%2Fopen.demonii.com%3A1337","udp%3A%2F%2Ftracker.coppersurfer.tk%3A6969","udp%3A%2F%2Fexodus.desync.com%3A6969"],"infoHash":"a8296fbdf3caa64c1fe5d83ddcea508e1f79f374","infoHashBuffer":{"type":"Buffer","data":[168,41,111,189,243,202,166,76,31,229,216,61,220,234,80,142,31,121,243,116]},"announce":[],"urlList":[]}}